<svg xmlns="http://www.w3.org/2000/svg" viewBox="0 0 1016.21 154.12"><defs><style>.cls-1{fill:#fff;}</style></defs><title>logo</title><g id="Layer_2" data-name="Layer 2"><g id="Layer_1-2" data-name="Layer 1"><path class="cls-1" d="M1004.05,84.5c-.67-19.17-14.64-29.29-35.68-29.29-18.5,0-33.81,10.12-33.81,26.63,0,11.71,8.12,18,17,21.43,9.32,3.59,26.09,7,33.15,10.11S995,120.17,995,126.56c0,11.32-10.65,16.91-23.83,16.91-10.78,0-26.76-4.4-28-22.63l-11.84.53c.4,20.77,16.1,32.75,39.93,32.75,19.3,0,36.21-10.65,36.21-28.22,0-12.25-6.52-19.7-17.71-23.83-6.92-2.66-24.49-6.52-33-9.85-4.79-1.87-9.71-5.06-9.71-10.92,0-10.25,8.91-16,21.43-16,13.57,0,22.49,6.79,23.29,19.57Z"/><polygon class="cls-1" points="906.34 144.52 919.79 144.52 919.79 49.34 907.67 49.34 907.67 125.48 907.27 125.48 857.49 49.34 844.31 49.34 844.31 144.52 856.43 144.52 856.43 67.97 856.83 67.97 906.34 144.52"/><path class="cls-1" d="M787.21,47.34c-23.83,0-45.79,16.64-45.79,50.19,0,28.22,18.63,48.85,45.52,48.85,30.35,0,45.53-24.36,45.53-50.32C832.47,69.44,815,47.34,787.21,47.34Zm-.27,88.52c-24.09,0-32.74-21.56-32.74-38.2,0-24.36,12.77-39.8,32.87-39.8,20.77,0,32.62,17.7,32.62,38.47C819.69,116.43,810.24,135.86,786.94,135.86Z"/><rect class="cls-1" x="715.59" y="49.34" width="12.65" height="95.18"/><polygon class="cls-1" points="663.55 144.52 676.19 144.52 676.19 60.39 707.74 60.39 707.74 49.34 632 49.34 632 60.39 663.55 60.39 663.55 144.52"/><path class="cls-1" d="M628.8,103.77l-12.51-1.6c-2.53,16-12,25.82-27.69,25.82-14.24,0-31.54-8.52-31.54-39.13,0-19.57,8.78-38.47,31.68-38.47,12.91,0,22.76,6.25,26.35,20.1L627.61,69c-3.86-18.63-18.51-29.28-38.87-29.28-26.49,0-44.46,20.5-44.46,49.12,0,32.48,18.1,49.78,44.19,49.78,22.23,0,36.47-12.51,40.33-34.87"/><polygon class="cls-1" points="468 144.52 536.56 144.52 536.56 133.6 480.65 133.6 480.65 100.86 531.63 100.86 531.63 89.94 480.65 89.94 480.65 60.39 535.23 60.39 535.23 49.34 468 49.34 468 144.52"/><path class="cls-1" d="M452.43,76.76c-.66-19.17-14.64-29.28-35.67-29.28C398.25,47.48,383,57.59,383,74.1c0,11.71,8.12,18,17,21.43,9.31,3.59,26.09,7,33.14,10.12s10.25,6.79,10.25,13.17c0,11.32-10.65,16.91-23.83,16.91-10.78,0-26.75-4.39-27.95-22.63l-11.85.53c.4,20.77,16.11,32.75,39.94,32.75,19.3,0,36.2-10.65,36.2-28.22,0-12.25-6.52-19.7-17.7-23.83-6.92-2.66-24.49-6.52-33-9.85-4.8-1.86-9.72-5.06-9.72-10.91,0-10.25,8.92-16,21.43-16,13.58,0,22.5,6.79,23.3,19.57Z"/><path class="cls-1" d="M364.45,122.53c-2.13-6.92-5.2-14.91-12.65-18l-3.59-1.47C362.32,101,369.9,91.65,369.9,78.73c0-15.44-10.11-25.82-31.81-25.82H295v95.18h12.65v-41.4h23c13.05,0,19.31,7.19,21.7,19.83,1.6,8.12,5.06,17.71,9.05,21.57h14.51C370.44,141.7,367.24,131.71,364.45,122.53Zm-29-26.62H307.61V63.56h30.75c13,0,18.63,6,18.63,15.84C357,90.85,349.94,95.91,335.43,95.91Z"/><polygon class="cls-1" points="214.43 144.52 282.98 144.52 282.98 133.6 227.07 133.6 227.07 100.86 278.06 100.86 278.06 89.94 227.07 89.94 227.07 60.39 281.65 60.39 281.65 49.34 214.43 49.34 214.43 144.52"/><polygon class="cls-1" points="162.65 140.94 175.29 140.94 175.29 56.82 206.84 56.82 206.84 45.77 131.1 45.77 131.1 56.82 162.65 56.82 162.65 140.94"/><polygon class="cls-1" points="109.8 144.52 123.25 144.52 123.25 49.34 111.14 49.34 111.14 125.48 110.73 125.48 60.95 49.34 47.77 49.34 47.77 144.52 59.89 144.52 59.89 67.97 60.28 67.97 109.8 144.52"/><rect class="cls-1" x="17.56" y="49.34" width="12.65" height="95.18"/><polygon class="cls-1" points="1013.49 0.43 1010.23 13.81 1009.29 17.73 1009.26 17.73 1008.37 13.98 1004.74 0.43 1001.65 0.43 997.88 14.04 996.96 17.73 996.93 17.73 996.08 13.81 992.93 0.43 990.16 0.43 995.48 20.88 998.28 20.88 1002.34 6.23 1003.11 3.26 1003.14 3.26 1003.94 6.23 1007.94 20.88 1010.66 20.88 1016.21 0.43 1013.49 0.43"/><path class="cls-1" d="M980.15,0c-5.12,0-9.84,3.57-9.84,10.78,0,6.06,4,10.5,9.78,10.5,6.52,0,9.78-5.24,9.78-10.81C989.87,4.75,986.13,0,980.15,0Zm-.06,19c-5.17,0-7-4.64-7-8.21,0-5.23,2.74-8.55,7.06-8.55s7,3.8,7,8.26S985.1,19,980.09,19Z"/><polygon class="cls-1" points="964.76 9.01 954.07 9.01 954.07 0.43 951.35 0.43 951.35 20.88 954.07 20.88 954.07 11.38 964.76 11.38 964.76 20.88 967.48 20.88 967.48 0.43 964.76 0.43 964.76 9.01"/><path class="cls-1" d="M944.66,10.09c-1.49-.57-5.26-1.4-7.09-2.11-1-.4-2.09-1.09-2.09-2.35,0-2.2,1.92-3.43,4.61-3.43,2.91,0,4.83,1.46,5,4.21l2.63-.09C947.58,2.2,944.58,0,940.06,0c-4,0-7.27,2.17-7.27,5.72,0,2.51,1.75,3.86,3.66,4.6s5.61,1.52,7.13,2.18,2.2,1.45,2.2,2.83c0,2.43-2.29,3.63-5.12,3.63-2.32,0-5.75-.95-6-4.86l-2.54.11c.08,4.46,3.46,7,8.58,7,4.14,0,7.77-2.29,7.77-6.07C948.46,12.58,947.06,11,944.66,10.09Z"/><path class="cls-1" d="M919.81,11.52l-.77-.31A5,5,0,0,0,923.7,6c0-3.32-2.17-5.55-6.83-5.55H907.6V20.87h2.72V12h4.95c2.8,0,4.14,1.55,4.66,4.26.34,1.75,1.08,3.81,1.94,4.63H925a15.79,15.79,0,0,1-2.46-5.49C922.07,13.9,921.41,12.18,919.81,11.52Zm-3.52-1.85h-6V2.72h6.6c2.81,0,4,1.28,4,3.4C920.93,8.58,919.41,9.67,916.29,9.67Z"/><path class="cls-1" d="M895.08,0c-5.12,0-9.84,3.57-9.84,10.78,0,6.06,4,10.5,9.78,10.5,6.52,0,9.78-5.24,9.78-10.81C904.8,4.75,901.05,0,895.08,0ZM895,19c-5.18,0-7-4.64-7-8.21,0-5.23,2.75-8.55,7.07-8.55s7,3.8,7,8.26S900,19,895,19Z"/><rect class="cls-1" x="879.41" y="0.43" width="2.72" height="20.45"/><polygon class="cls-1" points="872.69 16.79 872.6 16.79 861.91 0.43 859.08 0.43 859.08 20.88 861.68 20.88 861.68 4.43 861.76 4.43 872.4 20.88 875.29 20.88 875.29 0.43 872.69 0.43 872.69 16.79"/><polygon class="cls-1" points="844.18 11.5 855.13 11.5 855.13 9.15 844.18 9.15 844.18 2.8 855.9 2.8 855.9 0.43 841.46 0.43 841.46 20.88 856.19 20.88 856.19 18.53 844.18 18.53 844.18 11.5"/><path class="cls-1" d="M834.77,10.09c-1.49-.57-5.26-1.4-7.09-2.11-1-.4-2.09-1.09-2.09-2.35,0-2.2,1.92-3.43,4.6-3.43,2.92,0,4.84,1.46,5,4.21l2.63-.09C837.69,2.2,834.68,0,830.16,0c-4,0-7.26,2.17-7.26,5.72,0,2.51,1.75,3.86,3.66,4.6s5.61,1.52,7.12,2.18,2.2,1.45,2.2,2.83c0,2.43-2.28,3.63-5.11,3.63-2.32,0-5.75-.95-6-4.86l-2.54.11c.08,4.46,3.46,7,8.57,7,4.15,0,7.78-2.29,7.78-6.07C838.57,12.58,837.17,11,834.77,10.09Z"/><path class="cls-1" d="M807.6.46c-5.06,0-6.69,4.6-6.69,10.41,0,3.06.4,5.69,1.49,7.55a6.24,6.24,0,0,0,10.41,0c1.08-1.86,1.48-4.49,1.48-7.55C814.29,5.06,812.66.46,807.6.46Zm3.26,16.35a3.45,3.45,0,0,1-6.52,0,15.2,15.2,0,0,1-.86-6,15.09,15.09,0,0,1,.92-6.06,3.43,3.43,0,0,1,6.41,0,15.29,15.29,0,0,1,.91,6.06A15,15,0,0,1,810.86,16.81Z"/><path class="cls-1" d="M793.13,14a24.5,24.5,0,0,0,3.64-3.11,6.78,6.78,0,0,0,1.85-4.61c0-2.06-1.2-5.77-6.37-5.77C788.16.46,785.76,3,785.67,7l2.52,0c0-2.48,1.4-4.49,4-4.49A3.57,3.57,0,0,1,796,6.18a5,5,0,0,1-1.2,3.2,20.87,20.87,0,0,1-4.2,3.57c-2.58,1.78-4.15,3.32-5,5.52a7.81,7.81,0,0,0-.49,2.4h13.39V18.62H788.19C789.13,16.41,790.76,15.61,793.13,14Z"/><path class="cls-1" d="M777,.46c-5.06,0-6.69,4.6-6.69,10.41,0,3.06.4,5.69,1.48,7.55a6.24,6.24,0,0,0,10.41,0c1.09-1.86,1.49-4.49,1.49-7.55C783.64,5.06,782,.46,777,.46Zm3.26,16.35a3.45,3.45,0,0,1-6.52,0,15,15,0,0,1-.86-6,15.09,15.09,0,0,1,.92-6.06,3.42,3.42,0,0,1,6.4,0,15.09,15.09,0,0,1,.92,6.06A15,15,0,0,1,780.21,16.81Z"/><path class="cls-1" d="M762.48,14a24.35,24.35,0,0,0,3.63-3.11A6.79,6.79,0,0,0,768,6.23c0-2.06-1.2-5.77-6.38-5.77C757.5.46,755.1,3,755,7l2.52,0c0-2.48,1.4-4.49,4-4.49a3.58,3.58,0,0,1,3.86,3.61,5,5,0,0,1-1.2,3.2A20.7,20.7,0,0,1,760,13c-2.57,1.78-4.14,3.32-5,5.52a7.81,7.81,0,0,0-.49,2.4h13.38V18.62H757.53C758.47,16.41,760.11,15.61,762.48,14Z"/><polygon class="cls-1" points="298.34 0.43 298.34 16.79 298.25 16.79 287.56 0.43 284.73 0.43 284.73 20.88 287.33 20.88 287.33 4.43 287.41 4.43 298.05 20.88 300.94 20.88 300.94 0.43 298.34 0.43"/><path class="cls-1" d="M272.57,12.64h6.24V14c0,2.86-2.43,4.92-6.29,4.92-4.29,0-7.27-3.2-7.27-8.18,0-5.4,2.89-8.46,7.24-8.46,2.43,0,5.23.94,6,4.49l2.58-.35c-.66-3.17-2.95-6.4-8.58-6.4s-9.95,3.69-9.95,10.75c0,6.84,4.77,10.47,9.92,10.47s8.75-2.95,8.86-7.12V10.29h-8.75Z"/><rect class="cls-1" x="256.7" y="0.43" width="2.72" height="20.45"/><path class="cls-1" d="M249.67,10.09c-1.49-.57-5.26-1.4-7.09-2.11-1-.4-2.09-1.09-2.09-2.35,0-2.2,1.91-3.43,4.6-3.43,2.92,0,4.84,1.46,5,4.21l2.63-.09C252.59,2.2,249.58,0,245.06,0c-4,0-7.26,2.17-7.26,5.72,0,2.51,1.75,3.86,3.66,4.6s5.61,1.52,7.12,2.18,2.2,1.45,2.2,2.83c0,2.43-2.28,3.63-5.12,3.63-2.31,0-5.74-.95-6-4.86l-2.55.11c.09,4.46,3.46,7,8.58,7,4.15,0,7.78-2.29,7.78-6.07C253.47,12.58,252.07,11,249.67,10.09Z"/><polygon class="cls-1" points="223.22 11.5 234.17 11.5 234.17 9.15 223.22 9.15 223.22 2.8 234.94 2.8 234.94 0.43 220.5 0.43 220.5 20.88 235.23 20.88 235.23 18.53 223.22 18.53 223.22 11.5"/><path class="cls-1" d="M207.83.43h-7V20.87H208c3.64,0,5.89-.94,7.53-3,1.37-1.71,2.14-4.23,2.14-7.52,0-3.52-1-6.12-2.89-7.83C213.55,1.4,211.41.43,207.83.43Zm5.38,16.07c-1.26,1.63-3.26,2-5.23,2h-4.47V2.8H208a7.76,7.76,0,0,1,3.74.66c2,1.12,3.23,3.26,3.23,7.06A9.39,9.39,0,0,1,213.21,16.5Z"/><path class="cls-1" d="M183.38,19c-3.06,0-6.77-1.83-6.77-8.41,0-4.2,1.88-8.26,6.8-8.26a5.38,5.38,0,0,1,5.66,4.31l2.69-.31c-.83-4-4-6.29-8.35-6.29-5.69,0-9.55,4.4-9.55,10.55,0,7,3.89,10.7,9.5,10.7,4.77,0,7.83-2.69,8.66-7.5l-2.69-.34C188.79,16.87,186.76,19,183.38,19Z"/><rect class="cls-1" x="168.03" y="0.43" width="2.72" height="20.45"/><polygon class="cls-1" points="161.19 9.01 150.5 9.01 150.5 0.43 147.78 0.43 147.78 20.88 150.5 20.88 150.5 11.38 161.19 11.38 161.19 20.88 163.91 20.88 163.91 0.43 161.19 0.43 161.19 9.01"/><path class="cls-1" d="M138,.43h-8.43V20.87h2.71V12.55H138c4.75,0,7-2.28,7-6.14C145,3.43,143.38.43,138,.43Zm-.43,9.78h-5.29V2.8H138c2.57,0,4.2,1.09,4.2,3.66S140.89,10.21,137.57,10.21Z"/><path class="cls-1" d="M116.9.43l-7.84,20.29c0,.05.08.11.12.15h2.66l2.26-6.17h8.63l2.32,6.17h3L119.87.43Zm-2,12,2.25-6.18c.43-1.17.83-2.37,1.15-3.54h0c.34,1.17.77,2.34,1.2,3.54l2.31,6.18Z"/><path class="cls-1" d="M104,11.52l-.77-.31A5,5,0,0,0,107.89,6c0-3.32-2.17-5.55-6.83-5.55H91.79V20.87h2.72V12h4.95c2.8,0,4.14,1.55,4.66,4.26.34,1.75,1.08,3.81,1.94,4.63h3l0-.15a16.46,16.46,0,0,1-2.34-5.34C106.26,13.9,105.6,12.18,104,11.52Zm-3.51-1.85h-6V2.72h6.6c2.81,0,4,1.28,4,3.4C105.12,8.58,103.6,9.67,100.49,9.67Z"/><path class="cls-1" d="M79.67,12.64H85.9V14c0,2.86-2.43,4.92-6.29,4.92-4.29,0-7.26-3.2-7.26-8.18,0-5.4,2.89-8.46,7.23-8.46,2.43,0,5.23.94,6,4.49l2.57-.35C87.5,3.26,85.22,0,79.58,0s-10,3.69-10,10.75c0,6.84,4.78,10.47,9.92,10.47s8.75-2.95,8.87-7.12V10.29H79.67Z"/><path class="cls-1" d="M51.9.43h-7V20.87h7.2c3.63,0,5.89-.94,7.52-3,1.38-1.71,2.15-4.23,2.15-7.52,0-3.52-1-6.12-2.89-7.83C57.62,1.4,55.48.43,51.9.43ZM57.28,16.5c-1.26,1.63-3.26,2-5.24,2H47.58V2.8H52a7.78,7.78,0,0,1,3.74.66c2,1.12,3.23,3.26,3.23,7.06A9.39,9.39,0,0,1,57.28,16.5Z"/><path class="cls-1" d="M38.18,10.09c-1.49-.57-5.27-1.4-7.1-2.11-1-.4-2.08-1.09-2.08-2.35,0-2.2,1.91-3.43,4.6-3.43,2.92,0,4.83,1.46,5,4.21l2.63-.09C41.09,2.2,38.09,0,33.57,0c-4,0-7.26,2.17-7.26,5.72,0,2.51,1.74,3.86,3.66,4.6s5.6,1.52,7.12,2.18,2.2,1.45,2.2,2.83C39.29,17.79,37,19,34.17,19c-2.31,0-5.75-.95-6-4.86l-2.55.11c.09,4.46,3.46,7,8.58,7C38.35,21.28,42,19,42,15.21,42,12.58,40.58,11,38.18,10.09Z"/><rect class="cls-1" x="19.85" y="0.43" width="2.72" height="20.45"/><path class="cls-1" d="M12.21,11.52l-.77-.31A5,5,0,0,0,16.1,6C16.1,2.66,13.93.43,9.27.43H0V20.87H2.72V12H7.66c2.81,0,4.15,1.55,4.67,4.26.34,1.75,1.08,3.81,1.94,4.63h3.12a15.61,15.61,0,0,1-2.46-5.49C14.47,13.9,13.81,12.18,12.21,11.52ZM8.69,9.67h-6V2.72h6.6c2.8,0,4,1.28,4,3.4C13.33,8.58,11.81,9.67,8.69,9.67Z"/></g></g></svg>