<svg width="990" height="115" viewBox="0 0 990 115" fill="none" xmlns="http://www.w3.org/2000/svg">
<path d="M986.49 44.78C985.82 25.61 971.85 15.49 950.81 15.49C932.31 15.49 917 25.61 917 42.12C917 53.83 925.12 60.12 934 63.55C943.32 67.14 960.09 70.55 967.15 73.66C974.21 76.77 977.44 80.45 977.44 86.84C977.44 98.16 966.79 103.75 953.61 103.75C942.83 103.75 926.85 99.35 925.61 81.12L913.77 81.65C914.17 102.42 929.87 114.4 953.7 114.4C973 114.4 989.91 103.75 989.91 86.18C989.91 73.93 983.39 66.48 972.2 62.35C965.28 59.69 947.71 55.83 939.2 52.5C934.41 50.63 929.49 47.44 929.49 41.58C929.49 31.33 938.4 25.58 950.92 25.58C964.49 25.58 973.41 32.37 974.21 45.15L986.49 44.78Z" fill="white"/>
<path d="M888.78 104.8H902.23V9.62012H890.11V85.7601H889.71L839.93 9.62012H826.75V104.8H838.87V28.2501H839.27L888.78 104.8Z" fill="white"/>
<path d="M769.65 7.62012C745.82 7.62012 723.86 24.2601 723.86 57.8101C723.86 86.0301 742.49 106.66 769.38 106.66C799.73 106.66 814.91 82.3001 814.91 56.3401C814.91 29.7201 797.44 7.62012 769.65 7.62012ZM769.38 96.1401C745.29 96.1401 736.64 74.5801 736.64 57.9401C736.64 33.5801 749.41 18.1401 769.51 18.1401C790.28 18.1401 802.13 35.8401 802.13 56.6101C802.13 76.7101 792.68 96.1401 769.38 96.1401Z" fill="white"/>
<path d="M710.68 9.62012H698.03V104.8H710.68V9.62012Z" fill="white"/>
<path d="M645.99 104.8H658.63V20.6701H690.18V9.62012H614.44V20.6701H645.99V104.8Z" fill="white"/>
<path d="M611.24 64.05L598.73 62.45C596.2 78.45 586.73 88.27 571.04 88.27C556.8 88.27 539.5 79.75 539.5 49.14C539.5 29.57 548.28 10.67 571.18 10.67C584.09 10.67 593.94 16.92 597.53 30.77L610.05 29.28C606.19 10.65 591.54 0 571.18 0C544.69 0 526.72 20.5 526.72 49.12C526.72 81.6 544.82 98.9 570.91 98.9C593.14 98.9 607.38 86.39 611.24 64.03" fill="white"/>
<path d="M450.44 104.8H519V93.8801H463.09V61.1401H514.07V50.2201H463.09V20.6701H517.67V9.62012H450.44V104.8Z" fill="white"/>
<path d="M434.87 37.04C434.21 17.87 420.23 7.76001 399.2 7.76001C380.69 7.76001 365.44 17.87 365.44 34.38C365.44 46.09 373.56 52.38 382.44 55.81C391.75 59.4 408.53 62.81 415.58 65.93C422.63 69.05 425.83 72.72 425.83 79.1C425.83 90.42 415.18 96.01 402 96.01C391.22 96.01 375.25 91.62 374.05 73.38L362.2 73.91C362.6 94.68 378.31 106.66 402.14 106.66C421.44 106.66 438.34 96.01 438.34 78.44C438.34 66.19 431.82 58.74 420.64 54.61C413.72 51.95 396.15 48.09 387.64 44.76C382.84 42.9 377.92 39.7 377.92 33.85C377.92 23.6 386.84 17.85 399.35 17.85C412.93 17.85 421.85 24.64 422.65 37.42L434.87 37.04Z" fill="white"/>
<path d="M346.89 82.8099C344.76 75.8899 341.69 67.8999 334.24 64.8099L330.65 63.3399C344.76 61.2799 352.34 51.9299 352.34 39.0099C352.34 23.5699 342.23 13.1899 320.53 13.1899H277.44V108.37H290.09V66.9699H313.09C326.14 66.9699 332.4 74.1599 334.79 86.7999C336.39 94.9199 339.85 104.51 343.84 108.37H358.35C352.88 101.98 349.68 91.9899 346.89 82.8099ZM317.89 56.1899H290.05V23.8399H320.8C333.8 23.8399 339.43 29.8399 339.43 39.6799C339.44 51.1299 332.38 56.1899 317.87 56.1899H317.89Z" fill="white"/>
<path d="M196.87 104.8H265.42V93.8801H209.51V61.1401H260.5V50.2201H209.51V20.6701H264.09V9.62012H196.87V104.8Z" fill="white"/>
<path d="M145.09 101.22H157.73V17.1H189.28V6.05005H113.54V17.1H145.09V101.22Z" fill="white"/>
<path d="M92.24 104.8H105.69V9.62012H93.58V85.7601H93.17L43.39 9.62012H30.21V104.8H42.33V28.2501H42.72L92.24 104.8Z" fill="white"/>
<path d="M12.65 9.62012H0V104.8H12.65V9.62012Z" fill="white"/>
</svg>
